<svg width="256" height="256" viewBox="0 0 256 256" fill="none" xmlns="http://www.w3.org/2000/svg">
<rect width="256" height="256" rx="16" fill="#33FF77"/>
<path d="M39.4543 75H74.2543L80.2543 153.9V169.2H83.8543V153.9L89.8543 75H124.654V180H106.654V109.8L108.454 85.8H104.854L97.0543 180H67.3543L59.2543 85.8H55.6543L57.4543 109.8V180H39.4543V75ZM192.8 169.2H190.1C189.3 170.9 188.3 172.55 187.1 174.15C186 175.65 184.5 177 182.6 178.2C180.8 179.4 178.6 180.35 176 181.05C173.5 181.75 170.45 182.1 166.85 182.1C162.25 182.1 157.95 181.3 153.95 179.7C150.05 178 146.6 175.55 143.6 172.35C140.7 169.05 138.4 165.05 136.7 160.35C135.1 155.65 134.3 150.25 134.3 144.15V141.45C134.3 135.45 135.15 130.1 136.85 125.4C138.65 120.7 141.05 116.75 144.05 113.55C147.15 110.25 150.7 107.75 154.7 106.05C158.8 104.35 163.1 103.5 167.6 103.5C173.6 103.5 178.35 104.65 181.85 106.95C185.35 109.15 188.1 112.3 190.1 116.4H192.8V105.6H211.7V198.3C211.7 201.7 210.6 204.5 208.4 206.7C206.3 208.9 203.55 210 200.15 210H150.05V192H188.75C191.45 192 192.8 190.5 192.8 187.5V169.2ZM173 164.1C178.9 164.1 183.65 162.25 187.25 158.55C190.95 154.75 192.8 149.8 192.8 143.7V141.9C192.8 135.8 190.95 130.9 187.25 127.2C183.65 123.4 178.9 121.5 173 121.5C167.1 121.5 162.3 123.35 158.6 127.05C155 130.65 153.2 135.6 153.2 141.9V143.7C153.2 150 155 155 158.6 158.7C162.3 162.3 167.1 164.1 173 164.1Z" fill="black"/>
<path d="M28.672 43.952V19.568H27.808L24.64 31.088H18.592V30.512L22.624 16.4H35.008V43.952H43.36V50H19.168V43.952H28.672ZM72.1266 43.952V50H48.5106V43.376C48.5106 41.616 48.7666 40.112 49.2786 38.864C49.8226 37.616 50.5746 36.56 51.5346 35.696C52.5266 34.832 53.7106 34.128 55.0866 33.584C56.4626 33.008 58.0146 32.528 59.7426 32.144C61.0226 31.856 62.0626 31.536 62.8626 31.184C63.6946 30.8 64.3506 30.384 64.8306 29.936C65.3106 29.456 65.6306 28.944 65.7906 28.4C65.9826 27.824 66.0786 27.184 66.0786 26.48C66.0786 25.136 65.5826 24.016 64.5906 23.12C63.6306 22.224 62.2866 21.776 60.5586 21.776C58.7346 21.776 57.2786 22.336 56.1906 23.456C55.1026 24.544 54.5586 26.064 54.5586 28.016V30.128H48.2226V27.44C48.2226 25.872 48.4946 24.384 49.0386 22.976C49.6146 21.536 50.4146 20.288 51.4386 19.232C52.4946 18.144 53.7746 17.296 55.2786 16.688C56.7826 16.048 58.4786 15.728 60.3666 15.728C62.3826 15.728 64.1426 16.032 65.6466 16.64C67.1506 17.216 68.3986 17.984 69.3906 18.944C70.4146 19.904 71.1666 21.024 71.6466 22.304C72.1586 23.552 72.4146 24.848 72.4146 26.192V26.768C72.4146 29.584 71.6146 31.92 70.0146 33.776C68.4466 35.632 65.8706 36.976 62.2866 37.808C60.7826 38.16 59.5346 38.528 58.5426 38.912C57.5826 39.264 56.8306 39.664 56.2866 40.112C55.7426 40.56 55.3586 41.056 55.1346 41.6C54.9426 42.112 54.8466 42.704 54.8466 43.376V43.952H72.1266Z" fill="black"/>
</svg>
